<svg height="500" width="500" xmlns="http://www.w3.org/2000/svg" viewBox="0 0 500 500"><defs><radialGradient id="b" fx="50%" fy="50%" r="60%"><stop stop-color="#ffab00" offset="0"/><stop stop-color="orange" offset=".206"/><stop stop-color="#ffab00" offset=".247"/><stop stop-color="#f80" offset="1"/></radialGradient><filter id="a" color-interpolation-filters="sRGB"><feGaussianBlur stdDeviation="3" result="result1"/><feBlend result="result5" mode="multiply" in2="result1" in="result1"/><feGaussianBlur stdDeviation="1" result="result6" in="result5"/><feComposite operator="xor" result="result8" in2="result5" in="result6"/><feComposite operator="xor" result="fbSourceGraphic" in2="result8" in="result6"/><feSpecularLighting lighting-color="#FFF" specularConstant="2.2" result="result1" specularExponent="55" in="fbSourceGraphic" surfaceScale="2"><fePointLight y="-10000" x="-5000" z="20000"/></feSpecularLighting><feComposite operator="in" result="result2" in2="fbSourceGraphic" in="result1"/><feComposite in2="result2" k3="1" k2="2" result="result4" in="fbSourceGraphic" operator="arithmetic"/><feComposite operator="in" result="result91" in2="result4" in="result4"/><feBlend mode="darken" in2="result91"/></filter></defs><path stroke-linejoin="round" d="M250 3.16l-227 123-.42 247 227 124 227-123 .42-247zm-.711 97.9v.006c3.78 0 7.6.297 11.5.875 41.1 6.17 72.2 40.6 66.4 70.5-5.8 29.8-33.3 56-40.1 61.7s37.1 165 37.1 165h-149s46.2-157 36.5-165c-9.7-8.14-41.2-36.9-36.4-68.9 4.81-32.1 37.6-64 74.2-64.1z" transform="matrix(.957 0 0 .957 10.8 10.8)" filter="url(#a)" stroke="#000" stroke-linecap="round" stroke-width="15.7" fill="url(#b)"/></svg>
