<?xml version="1.0" encoding="UTF-8" standalone="no"?>
<svg xmlns:rdf="http://www.w3.org/1999/02/22-rdf-syntax-ns#" xmlns="http://www.w3.org/2000/svg" xmlns:osb="http://www.openswatchbook.org/uri/2009/osb" height="500" width="500" version="1.1" xmlns:cc="http://creativecommons.org/ns#" xmlns:xlink="http://www.w3.org/1999/xlink" viewBox="0 0 500 500" xmlns:dc="http://purl.org/dc/elements/1.1/">
<defs>
<radialGradient id="a" r="40%">
<stop stop-color="#ffab00" offset="0"/>
<stop stop-color="#ffa500" offset=".206"/>
<stop stop-color="#ffab00" offset=".247"/>
<stop stop-color="#f80" offset="1"/>
</radialGradient>
<filter id="b" style="color-interpolation-filters:sRGB">
<feGaussianBlur stdDeviation="3" result="result1"/>
<feBlend in="result1" result="result5" in2="result1" mode="multiply"/>
<feGaussianBlur stdDeviation="1" result="result6" in="result5"/>
<feComposite operator="xor" result="result8" in2="result5" in="result6"/>
<feComposite operator="xor" result="fbSourceGraphic" in2="result8" in="result6"/>
<feSpecularLighting lighting-color="rgb(255,255,255)" specularConstant="2.2" result="result1" specularExponent="55" in="fbSourceGraphic" surfaceScale="2">
<fePointLight y="-10000" x="-5000" z="20000"/>
</feSpecularLighting>
<feComposite operator="in" result="result2" in2="fbSourceGraphic" in="result1"/>
<feComposite in2="result2" k3="1" k2="2" result="result4" in="fbSourceGraphic" operator="arithmetic"/>
<feComposite operator="in" result="result91" in2="result4" in="result4"/>
<feBlend mode="darken" in2="result91"/>
</filter>
</defs>
<g transform="translate(0 -552)">
<path stroke-linejoin="round" d="m250 3.16-227 123-0.1 247 227 124 227-123v-247zm-0.711 97.9v0.006c3.78 0 7.6 0.297 11.5 0.875 41.1 6.17 72.2 40.6 66.4 70.5-5.8 29.8-33.3 56-40.1 61.7-6.81 5.69 37.1 165 37.1 165h-74.1-1.07-74s46.2-157 36.5-165c-9.69-8.14-41.2-36.9-36.4-68.9 4.81-32.1 37.6-64 74.2-64.1z" transform="matrix(.957 0 0 .957 10.8 563)" filter="url(#b)" stroke="#000" stroke-linecap="round" stroke-width="15.7" fill="url(#a)"/>
</g>
</svg>
