<svg xmlns="http://www.w3.org/2000/svg" xmlns:xlink="http://www.w3.org/1999/xlink" width="500" height="500" viewBox="0 0 500 500"><defs><linearGradient id="a"><stop offset="0" stop-color="#ffab00"/><stop offset=".206" stop-color="orange"/><stop offset=".247" stop-color="#ffab00"/><stop offset="1" stop-color="#f80"/></linearGradient><radialGradient xlink:href="#a" id="b" fx="50%" fy="50%" r="40%" spreadMethod="pad"/><filter id="c" color-interpolation-filters="sRGB"><feGaussianBlur result="result1" stdDeviation="3"/><feBlend in2="result1" result="result5" mode="multiply" in="result1"/><feGaussianBlur in="result5" result="result6" stdDeviation="1"/><feComposite result="result8" in2="result5" in="result6" operator="xor"/><feComposite in="result6" result="fbSourceGraphic" operator="xor" in2="result8"/><feSpecularLighting in="fbSourceGraphic" result="result1" lighting-color="#FFF" surfaceScale="2" specularConstant="2.2" specularExponent="55"><fePointLight x="-5000" y="-10000" z="20000"/></feSpecularLighting><feComposite in2="fbSourceGraphic" in="result1" result="result2" operator="in"/><feComposite in="fbSourceGraphic" result="result4" operator="arithmetic" k2="2" k3="1" in2="result2"/><feComposite in2="result4" in="result4" operator="in" result="result91"/><feBlend mode="darken" in2="result91"/></filter></defs><path d="M250.418 3.158L23.301 126.238l-.42 246.84 226.701 123.764 227.117-123.08.42-246.84zm-.711 97.865v.006c3.78 0 7.604.297 11.457.875 41.101 6.166 72.183 40.64 66.384 70.457-5.798 29.816-33.28 55.978-40.085 61.672-6.805 5.695 37.096 164.944 37.096 164.944h-149.12s46.181-156.802 36.486-164.944c-9.695-8.142-41.197-36.872-36.388-68.935 4.81-32.064 37.627-63.975 74.17-64.074z" transform="matrix(.95665 0 0 .95665 10.837 10.837)" fill="url(#b)" stroke="#000" stroke-width="15.68" stroke-linecap="round" stroke-linejoin="round" filter="url(#c)"/></svg>
