<svg xmlns="http://www.w3.org/2000/svg" height="500" width="2500" version="1.2" viewBox="0 0 2500 500"><defs><radialGradient id="b" r=".6"><stop stop-color="#ffab00" offset="0"/><stop stop-color="orange" offset=".206"/><stop stop-color="#ffab00" offset=".247"/><stop stop-color="#f80" offset="1"/></radialGradient><filter id="a" color-interpolation-filters="sRGB"><feGaussianBlur stdDeviation="3" result="result1"/><feBlend result="result5" mode="multiply" in2="result1" in="result1"/><feGaussianBlur stdDeviation="1" result="result6" in="result5"/><feComposite operator="xor" result="result8" in2="result5" in="result6"/><feComposite operator="xor" result="fbSourceGraphic" in2="result8" in="result6"/><feSpecularLighting specularConstant="2.2" result="result1" specularExponent="55" in="fbSourceGraphic" surfaceScale="2"><fePointLight y="-10000" x="-5000" z="20000"/></feSpecularLighting><feComposite operator="in" result="result2" in2="fbSourceGraphic" in="result1"/><feComposite in2="result2" k3="1" k2="2" result="result4" in="fbSourceGraphic" operator="arithmetic"/><feComposite operator="in" result="result91" in2="result4" in="result4"/><feBlend mode="darken" in2="result91"/></filter></defs><g stroke="#000"><path stroke-linejoin="round" d="M250 3.16l-227 123-.42 247 227 124 227-123 .42-247zm-.711 97.9v.006c3.78 0 7.6.297 11.5.875 41.1 6.17 72.2 40.6 66.4 70.5-5.8 29.8-33.3 56-40.1 61.7s37.1 165 37.1 165h-149s46.2-157 36.5-165c-9.7-8.14-41.2-36.9-36.4-68.9 4.81-32.1 37.6-64 74.2-64.1z" transform="matrix(.957 0 0 .957 10.8 10.8)" filter="url(#a)" stroke-linecap="round" stroke-width="15.7" fill="url(#b)"/><text filter="url(#a)" stroke-width="13" font-family="sans-serif" font-size="28.6" letter-spacing="0" transform="translate(0 -552)" word-spacing="0" y="949.388" x="1510.89" font-weight="400" fill="#ff920f"><tspan style="text-align:center" rotate="0 0 0 0 0 0 0 0 0 0 0" font-size="412" letter-spacing="-2.15" text-anchor="middle" dx="0" y="949.388" x="1510.89" font-family="Arial"> <tspan> <tspan letter-spacing="-10">P</tspan> <tspan letter-spacing="10">r</tspan> <tspan letter-spacing="7">i</tspan> <tspan letter-spacing="-7">v</tspan> <tspan letter-spacing="-5">a</tspan> <tspan letter-spacing="5">t</tspan> <tspan letter-spacing="15">e</tspan> Bin</tspan> </tspan></text></g></svg>
